<svg width="16" height="14" viewBox="0 0 16 14" fill="none" xmlns="http://www.w3.org/2000/svg">
<g clip-path="url(#clip0_18040_93590)">
<path d="M0.5 14H15.5C15.6326 14 15.7598 13.9539 15.8536 13.8719C15.9473 13.7898 16 13.6785 16 13.5625C16 13.4465 15.9473 13.3352 15.8536 13.2531C15.7598 13.1711 15.6326 13.125 15.5 13.125H0.5C0.367392 13.125 0.240215 13.1711 0.146447 13.2531C0.0526784 13.3352 0 13.4465 0 13.5625C0 13.6785 0.0526784 13.7898 0.146447 13.8719C0.240215 13.9539 0.367392 14 0.5 14ZM16 1.3125C16 0.964403 15.842 0.630564 15.5607 0.384422C15.2794 0.138281 14.8978 0 14.5 0L3 0C2.60218 0 2.22064 0.138281 1.93934 0.384422C1.65804 0.630564 1.5 0.964403 1.5 1.3125V4.8125C1.5 5.1606 1.65804 5.49444 1.93934 5.74058C2.22064 5.98672 2.60218 6.125 3 6.125H8C8.13261 6.125 8.25979 6.17109 8.35355 6.25314C8.44732 6.33519 8.5 6.44647 8.5 6.5625V13.5625C8.5 13.804 8.724 14 9 14H15.5C15.6326 14 15.7598 13.9539 15.8536 13.8719C15.9473 13.7898 16 13.6785 16 13.5625V1.3125ZM15 1.3125V13.5625L15.5 13.125H9L9.5 13.5625V6.5625C9.5 6.2144 9.34196 5.88056 9.06066 5.63442C8.77936 5.38828 8.39783 5.25 8 5.25H3C2.86739 5.25 2.74021 5.20391 2.64645 5.12186C2.55268 5.03981 2.5 4.92853 2.5 4.8125V1.3125C2.5 1.19647 2.55268 1.08519 2.64645 1.00314C2.74021 0.921094 2.86739 0.875 3 0.875H14.5C14.6326 0.875 14.7598 0.921094 14.8536 1.00314C14.9473 1.08519 15 1.19647 15 1.3125ZM12.5 14H15.5C15.6326 14 15.7598 13.9539 15.8536 13.8719C15.9473 13.7898 16 13.6785 16 13.5625V7.4375C16 7.32147 15.9473 7.21019 15.8536 7.12814C15.7598 7.04609 15.6326 7 15.5 7H13.5C13.1022 7 12.7206 7.13828 12.4393 7.38442C12.158 7.63056 12 7.9644 12 8.3125V13.5625C12 13.804 12.224 14 12.5 14ZM12.5 13.125L13 13.5625V8.3125C13 8.19647 13.0527 8.08519 13.1464 8.00314C13.2402 7.92109 13.3674 7.875 13.5 7.875H15.5L15 7.4375V13.5625L15.5 13.125H12.5ZM4 5.6875V7.4375C4 7.55353 4.05268 7.66481 4.14645 7.74686C4.24021 7.82891 4.36739 7.875 4.5 7.875C4.63261 7.875 4.75979 7.82891 4.85355 7.74686C4.94732 7.66481 5 7.55353 5 7.4375V5.6875C5 5.57147 4.94732 5.46019 4.85355 5.37814C4.75979 5.29609 4.63261 5.25 4.5 5.25C4.36739 5.25 4.24021 5.29609 4.14645 5.37814C4.05268 5.46019 4 5.57147 4 5.6875ZM5.5 3.0625C5.5 3.17853 5.44732 3.28981 5.35355 3.37186C5.25979 3.45391 5.13261 3.5 5 3.5C4.86739 3.5 4.74021 3.45391 4.64645 3.37186C4.55268 3.28981 4.5 3.17853 4.5 3.0625C4.5 2.94647 4.55268 2.83519 4.64645 2.75314C4.74021 2.67109 4.86739 2.625 5 2.625C5.13261 2.625 5.25979 2.67109 5.35355 2.75314C5.44732 2.83519 5.5 2.94647 5.5 3.0625ZM6.5 3.0625C6.5 2.7144 6.34196 2.38056 6.06066 2.13442C5.77936 1.88828 5.39782 1.75 5 1.75C4.60218 1.75 4.22064 1.88828 3.93934 2.13442C3.65804 2.38056 3.5 2.7144 3.5 3.0625C3.5 3.4106 3.65804 3.74444 3.93934 3.99058C4.22064 4.23672 4.60218 4.375 5 4.375C5.39782 4.375 5.77936 4.23672 6.06066 3.99058C6.34196 3.74444 6.5 3.4106 6.5 3.0625ZM15.5 2.625H12.5C12.3674 2.625 12.2402 2.67109 12.1464 2.75314C12.0527 2.83519 12 2.94647 12 3.0625C12 3.17853 12.0527 3.28981 12.1464 3.37186C12.2402 3.45391 12.3674 3.5 12.5 3.5H15.5C15.6326 3.5 15.7598 3.45391 15.8536 3.37186C15.9473 3.28981 16 3.17853 16 3.0625C16 2.94647 15.9473 2.83519 15.8536 2.75314C15.7598 2.67109 15.6326 2.625 15.5 2.625ZM15.5 4.375H12.5C12.3674 4.375 12.2402 4.42109 12.1464 4.50314C12.0527 4.58519 12 4.69647 12 4.8125C12 4.92853 12.0527 5.03981 12.1464 5.12186C12.2402 5.20391 12.3674 5.25 12.5 5.25H15.5C15.6326 5.25 15.7598 5.20391 15.8536 5.12186C15.9473 5.03981 16 4.92853 16 4.8125C16 4.69647 15.9473 4.58519 15.8536 4.50314C15.7598 4.42109 15.6326 4.375 15.5 4.375ZM1.56267 10.5C1.56267 11.0052 1.57067 11.2554 1.60867 11.5693C1.79333 13.0883 2.66867 14 4.56267 14C6.052 14 6.816 13.3064 7.214 12.0767C7.252 11.9583 7.28733 11.837 7.326 11.6917L7.41667 11.3423C7.436 11.2688 7.45267 11.2093 7.468 11.1557C7.50606 11.0263 7.50977 10.8911 7.47886 10.7603C7.44795 10.6295 7.38323 10.5066 7.28966 10.4011C7.19609 10.2956 7.07616 10.2102 6.93905 10.1515C6.80195 10.0928 6.6513 10.0624 6.49867 10.0625H2.06267C1.93006 10.0625 1.80288 10.1086 1.70911 10.1906C1.61535 10.2727 1.56267 10.384 1.56267 10.5ZM2.56267 10.5L2.06267 10.9375H6.49933C6.48133 10.9999 6.46333 11.0658 6.442 11.1458L6.352 11.4928C6.31667 11.6264 6.28533 11.7349 6.252 11.8382C5.96267 12.7307 5.52867 13.125 4.56267 13.125C3.24933 13.125 2.73867 12.593 2.60267 11.4771C2.56933 11.2029 2.56267 10.9748 2.56267 10.5ZM2.06267 10.0625C1.53223 10.0625 1.02353 10.2469 0.648453 10.5751C0.27338 10.9033 0.0626667 11.3484 0.0626667 11.8125C0.0626667 11.9285 0.115345 12.0398 0.209113 12.1219C0.302881 12.2039 0.430058 12.25 0.562667 12.25C0.695275 12.25 0.822452 12.2039 0.91622 12.1219C1.00999 12.0398 1.06267 11.9285 1.06267 11.8125C1.06267 11.5804 1.16802 11.3579 1.35556 11.1938C1.5431 11.0297 1.79745 10.9375 2.06267 10.9375C2.19528 10.9375 2.32245 10.8914 2.41622 10.8094C2.50999 10.7273 2.56267 10.616 2.56267 10.5C2.56267 10.384 2.50999 10.2727 2.41622 10.1906C2.32245 10.1086 2.19528 10.0625 2.06267 10.0625Z" fill="#2A220E"/>
</g>
<defs>
<clipPath id="clip0_18040_93590">
<rect width="16" height="14" fill="white"/>
</clipPath>
</defs>
</svg>
