<svg width="16" height="14" viewBox="0 0 16 14" fill="none" xmlns="http://www.w3.org/2000/svg">
<g clip-path="url(#clip0_18040_93566)">
<path d="M6.06268 6.34608C5.91435 6.34713 5.7697 6.38663 5.64703 6.4596C5.52436 6.53258 5.42918 6.63574 5.37351 6.75604C5.31785 6.87635 5.3042 7.0084 5.33431 7.13549C5.36441 7.26258 5.43691 7.37901 5.54263 7.47005C5.64835 7.56109 5.78256 7.62265 5.92827 7.64696C6.07398 7.67126 6.22465 7.65721 6.36124 7.60658C6.49782 7.55596 6.61418 7.47103 6.69561 7.36254C6.77703 7.25405 6.81986 7.12687 6.81868 6.99708V6.99533C6.82001 6.6395 6.48534 6.34492 6.07134 6.34375H6.06734C6.00168 6.3439 5.9367 6.35537 5.8761 6.3775C5.81551 6.39963 5.76049 6.43198 5.71418 6.47272C5.66788 6.51345 5.63119 6.56177 5.60623 6.6149C5.58126 6.66804 5.5685 6.72496 5.56868 6.78242C5.56885 6.83987 5.58196 6.89673 5.60725 6.94975C5.63254 7.00277 5.66951 7.05092 5.71607 7.09143C5.76262 7.13195 5.81784 7.16405 5.87857 7.18589C5.9393 7.20774 6.00435 7.2189 6.07001 7.21875H6.06868C6.00323 7.21861 5.94043 7.19608 5.89372 7.15596C5.847 7.11585 5.82007 7.06134 5.81868 7.00408C5.81828 6.96082 5.83256 6.91843 5.8597 6.88226C5.88684 6.8461 5.92563 6.81779 5.97116 6.80092C6.01669 6.78404 6.06691 6.77936 6.11548 6.78746C6.16405 6.79556 6.20879 6.81608 6.24403 6.84643C6.27927 6.87678 6.30343 6.91558 6.31347 6.95795C6.3235 7.00031 6.31895 7.04433 6.3004 7.08443C6.28184 7.12453 6.25012 7.15892 6.20923 7.18324C6.16834 7.20757 6.12012 7.22074 6.07068 7.22108C6.13634 7.22062 6.20125 7.20885 6.26171 7.18644C6.32218 7.16403 6.377 7.13142 6.42306 7.09047C6.46912 7.04952 6.50551 7.00103 6.53015 6.94777C6.55479 6.89452 6.5672 6.83754 6.56668 6.78008C6.56615 6.72263 6.5527 6.66583 6.52709 6.61293C6.50147 6.56002 6.4642 6.51205 6.4174 6.47175C6.3706 6.43145 6.31519 6.39961 6.25432 6.37805C6.19346 6.35648 6.12834 6.34562 6.06268 6.34608ZM10.5 2.1875H13.5C13.6326 2.1875 13.7598 2.23359 13.8536 2.31564C13.9473 2.39769 14 2.50897 14 2.625V11.375C14 11.491 13.9473 11.6023 13.8536 11.6844C13.7598 11.7664 13.6326 11.8125 13.5 11.8125H10.5C10.3674 11.8125 10.2402 11.8586 10.1465 11.9406C10.0527 12.0227 10 12.134 10 12.25C10 12.366 10.0527 12.4773 10.1465 12.5594C10.2402 12.6414 10.3674 12.6875 10.5 12.6875H13.5C13.8978 12.6875 14.2794 12.5492 14.5607 12.3031C14.842 12.0569 15 11.7231 15 11.375V2.625C15 2.2769 14.842 1.94306 14.5607 1.69692C14.2794 1.45078 13.8978 1.3125 13.5 1.3125H10.5C10.3674 1.3125 10.2402 1.35859 10.1465 1.44064C10.0527 1.52269 10 1.63397 10 1.75C10 1.86603 10.0527 1.97731 10.1465 2.05936C10.2402 2.14141 10.3674 2.1875 10.5 2.1875ZM8.00001 13.1267L2.00001 12.3772V2.17292L8.01534 0.873833L8.00001 0.87675V13.1273V13.1267ZM7.85868 13.993C8.00045 14.0107 8.14492 14.0016 8.28231 13.9662C8.41969 13.9308 8.54679 13.87 8.65501 13.788C8.76322 13.7059 8.85003 13.6044 8.90955 13.4904C8.96907 13.3765 8.99992 13.2526 9.00001 13.1273V0.877333C9.00003 0.746867 8.96671 0.618048 8.90249 0.500305C8.83827 0.382562 8.74476 0.278876 8.62883 0.196837C8.51289 0.114798 8.37745 0.0564826 8.23243 0.0261593C8.08741 -0.00416399 7.93648 -0.00572741 7.79068 0.0215835L1.77534 1.32008C1.55441 1.36389 1.35716 1.47234 1.21619 1.62751C1.07522 1.78268 0.99896 1.97528 1.00001 2.1735V12.3772C1.00001 12.8129 1.36668 13.1822 1.85934 13.2434L7.85868 13.993Z" fill="#2A220E"/>
</g>
<defs>
<clipPath id="clip0_18040_93566">
<rect width="16" height="14" fill="white"/>
</clipPath>
</defs>
</svg>
