<svg width="16" height="14" viewBox="0 0 16 14" fill="none" xmlns="http://www.w3.org/2000/svg">
<g clip-path="url(#clip0_18040_93578)">
<path d="M7.50071 0.4375V4.8125C7.50071 4.92853 7.55339 5.03981 7.64715 5.12186C7.74092 5.20391 7.8681 5.25 8.00071 5.25C8.13332 5.25 8.26049 5.20391 8.35426 5.12186C8.44803 5.03981 8.50071 4.92853 8.50071 4.8125V0.4375C8.50071 0.321468 8.44803 0.210188 8.35426 0.128141C8.26049 0.0460936 8.13332 0 8.00071 0C7.8681 0 7.74092 0.0460936 7.64715 0.128141C7.55339 0.210188 7.50071 0.321468 7.50071 0.4375ZM10.188 0.970667L7.68804 2.72067H8.31337L5.81337 0.970667C5.76207 0.934739 5.70318 0.908005 5.64007 0.891991C5.57696 0.875977 5.51086 0.870997 5.44555 0.877335C5.38024 0.883672 5.317 0.901204 5.25943 0.928928C5.20186 0.956652 5.1511 0.994026 5.11004 1.03892C5.06898 1.08381 5.03843 1.13533 5.02013 1.19056C5.00182 1.24578 4.99613 1.30361 5.00338 1.36076C5.01062 1.41791 5.03065 1.47325 5.06234 1.52362C5.09402 1.57399 5.13674 1.61841 5.18804 1.65433L7.68804 3.40433C7.77675 3.46653 7.88703 3.50043 8.00071 3.50043C8.11438 3.50043 8.22467 3.46653 8.31337 3.40433L10.8134 1.65433C10.917 1.58177 10.9834 1.47617 10.998 1.36076C11.0127 1.24535 10.9743 1.12958 10.8914 1.03892C10.8084 0.948257 10.6878 0.890134 10.5559 0.877335C10.424 0.864535 10.2917 0.898108 10.188 0.970667ZM1.25604 4.09733L5.58604 6.28483C5.70082 6.34193 5.83675 6.35699 5.96417 6.32672C6.09159 6.29645 6.20016 6.22331 6.26618 6.12326C6.3322 6.02321 6.35031 5.90437 6.31656 5.79268C6.28281 5.68099 6.19994 5.58551 6.08604 5.52708L1.75604 3.33958C1.69913 3.31086 1.63632 3.29222 1.57118 3.28473C1.50604 3.27725 1.43986 3.28106 1.3764 3.29596C1.31295 3.31086 1.25347 3.33654 1.20136 3.37155C1.14926 3.40656 1.10554 3.45021 1.07271 3.5C1.03988 3.54979 1.01858 3.60476 1.01002 3.66175C1.00147 3.71875 1.00583 3.77666 1.02285 3.83218C1.05723 3.94431 1.14111 4.0399 1.25604 4.09792V4.09733ZM3.12737 2.3275L3.60937 5.09717L3.92137 4.6235L0.939374 5.64317C0.815783 5.6854 0.716429 5.76887 0.663169 5.8752C0.609908 5.98153 0.607104 6.10202 0.655374 6.21017C0.703643 6.31831 0.799032 6.40524 0.920555 6.45185C1.04208 6.49845 1.17978 6.5009 1.30337 6.45867L4.28537 5.439C4.39112 5.40278 4.47963 5.33615 4.53634 5.25006C4.59305 5.16397 4.61457 5.06355 4.59737 4.96533L4.11537 2.19567C4.10752 2.13737 4.08634 2.08104 4.05309 2.03005C4.01983 1.97907 3.9752 1.93445 3.92183 1.89888C3.86846 1.8633 3.80746 1.83748 3.74245 1.82297C3.67744 1.80845 3.60976 1.80553 3.54343 1.81438C3.47711 1.82323 3.4135 1.84367 3.35639 1.87448C3.29928 1.90529 3.24984 1.94584 3.21102 1.99372C3.1722 2.0416 3.14479 2.09583 3.13042 2.15317C3.11605 2.21051 3.11501 2.2698 3.12737 2.3275ZM1.75537 10.6598L6.08537 8.47233C6.14462 8.44473 6.1969 8.40697 6.23911 8.36131C6.28132 8.31565 6.31259 8.26302 6.33106 8.20656C6.34953 8.1501 6.35482 8.09096 6.34661 8.03267C6.3384 7.97439 6.31686 7.91814 6.28329 7.86729C6.24971 7.81644 6.20477 7.77203 6.15116 7.7367C6.09754 7.70137 6.03635 7.67584 5.97122 7.66165C5.90609 7.64745 5.83837 7.64487 5.77208 7.65407C5.70579 7.66326 5.64229 7.68404 5.58537 7.71517L1.25537 9.90267C1.19805 9.93118 1.14774 9.96934 1.10734 10.0149C1.06694 10.0605 1.03725 10.1127 1.01997 10.1684C1.00269 10.224 0.998173 10.2822 1.00667 10.3394C1.01517 10.3966 1.03652 10.4518 1.06949 10.5017C1.10246 10.5517 1.1464 10.5955 1.19878 10.6305C1.25116 10.6656 1.31095 10.6912 1.3747 10.706C1.43845 10.7207 1.5049 10.7243 1.57024 10.7165C1.63557 10.7086 1.69849 10.6896 1.75537 10.6604V10.6598ZM0.939374 8.35683L3.92137 9.3765L3.60937 8.90283L3.12737 11.6725C3.1122 11.7852 3.14764 11.8986 3.22622 11.9889C3.3048 12.0791 3.42038 12.1391 3.54856 12.1562C3.67674 12.1733 3.80751 12.1462 3.91326 12.0805C4.01901 12.0149 4.09148 11.9158 4.11537 11.8043L4.59737 9.03467C4.61457 8.93645 4.59305 8.83603 4.53634 8.74994C4.47963 8.66385 4.39112 8.59721 4.28537 8.561L1.30337 7.54133C1.17978 7.4991 1.04208 7.50155 0.920555 7.54815C0.799032 7.59476 0.703643 7.68169 0.655374 7.78983C0.607104 7.89797 0.609908 8.01847 0.663169 8.1248C0.716429 8.23113 0.815783 8.3146 0.939374 8.35683ZM8.50071 13.5625V9.1875C8.50071 9.07147 8.44803 8.96019 8.35426 8.87814C8.26049 8.79609 8.13332 8.75 8.00071 8.75C7.8681 8.75 7.74092 8.79609 7.64715 8.87814C7.55339 8.96019 7.50071 9.07147 7.50071 9.1875V13.5625C7.50071 13.6785 7.55339 13.7898 7.64715 13.8719C7.74092 13.9539 7.8681 14 8.00071 14C8.13332 14 8.26049 13.9539 8.35426 13.8719C8.44803 13.7898 8.50071 13.6785 8.50071 13.5625ZM5.81337 13.0293L8.31337 11.2793H7.68804L10.188 13.0293C10.2917 13.1018 10.4239 13.1353 10.5558 13.1225C10.6876 13.1096 10.8082 13.0515 10.891 12.9608C10.9739 12.8701 11.0122 12.7544 10.9975 12.639C10.9828 12.5237 10.9163 12.4181 10.8127 12.3457L8.31271 10.5957C8.22405 10.5336 8.1139 10.4998 8.00037 10.4998C7.88684 10.4998 7.77669 10.5336 7.68804 10.5957L5.18804 12.3457C5.08443 12.4182 5.018 12.5238 5.00338 12.6392C4.98875 12.7547 5.02712 12.8704 5.11004 12.9611C5.19297 13.0517 5.31365 13.1099 5.44555 13.1227C5.57745 13.1355 5.70976 13.1019 5.81337 13.0293ZM14.746 9.90267L10.416 7.71517C10.3016 7.66186 10.1681 7.64951 10.0434 7.68072C9.91883 7.71192 9.81295 7.78425 9.7481 7.88245C9.68326 7.98064 9.66452 8.09703 9.69585 8.20708C9.72718 8.31713 9.80613 8.41223 9.91604 8.47233L14.246 10.6598C14.3608 10.7169 14.4968 10.732 14.6242 10.7017C14.7516 10.6715 14.8602 10.5983 14.9262 10.4983C14.9922 10.3982 15.0103 10.2794 14.9766 10.1677C14.9428 10.056 14.8599 9.96051 14.746 9.90208V9.90267ZM12.8747 11.6725L12.392 8.90283L12.08 9.3765L15.062 8.35683C15.1856 8.3146 15.285 8.23113 15.3382 8.1248C15.3915 8.01847 15.3943 7.89797 15.346 7.78983C15.2978 7.68169 15.2024 7.59476 15.0809 7.54815C14.9593 7.50155 14.8216 7.4991 14.698 7.54133L11.716 8.561C11.6103 8.59721 11.5218 8.66385 11.4651 8.74994C11.4084 8.83603 11.3868 8.93645 11.404 9.03467L11.886 11.8043C11.906 11.9191 11.9773 12.0221 12.0841 12.0909C12.1909 12.1596 12.3246 12.1884 12.4557 12.171C12.5868 12.1535 12.7046 12.0911 12.7832 11.9977C12.8618 11.9042 12.8947 11.7872 12.8747 11.6725ZM14.246 3.33958L9.91604 5.52708C9.80111 5.5851 9.71723 5.68069 9.68285 5.79282C9.64847 5.90495 9.6664 6.02444 9.73271 6.125C9.79901 6.22556 9.90825 6.29896 10.0364 6.32904C10.1646 6.35913 10.3011 6.34343 10.416 6.28542L14.746 4.09792C14.861 4.0399 14.9448 3.94431 14.9792 3.83218C15.0136 3.72005 14.9957 3.60056 14.9294 3.5C14.8631 3.39944 14.7538 3.32604 14.6257 3.29596C14.4975 3.26588 14.361 3.28157 14.246 3.33958ZM15.062 5.64375L12.08 4.6235L12.392 5.09717L12.8747 2.3275C12.8846 2.2707 12.8816 2.21275 12.8659 2.15696C12.8502 2.10116 12.8221 2.04863 12.7832 2.00234C12.7443 1.95605 12.6953 1.91693 12.6391 1.88719C12.583 1.85746 12.5206 1.8377 12.4557 1.82904C12.3908 1.82039 12.3246 1.823 12.2608 1.83674C12.197 1.85048 12.137 1.87508 12.0841 1.90912C11.9773 1.97788 11.906 2.08095 11.886 2.19567L11.404 4.96533C11.3868 5.06355 11.4084 5.16397 11.4651 5.25006C11.5218 5.33615 11.6103 5.40278 11.716 5.439L14.698 6.45867C14.8216 6.5009 14.9593 6.49845 15.0809 6.45185C15.2024 6.40524 15.2978 6.31831 15.346 6.21017C15.3943 6.10202 15.3915 5.98153 15.3382 5.8752C15.285 5.76887 15.1856 5.6854 15.062 5.64317V5.64375ZM7.75071 4.43333L5.58537 5.52708C5.50932 5.56551 5.44617 5.62078 5.40228 5.68734C5.35839 5.7539 5.33532 5.8294 5.33537 5.90625V8.09375C5.33532 8.17059 5.35839 8.2461 5.40228 8.31266C5.44617 8.37922 5.50932 8.43449 5.58537 8.47292L7.75071 9.56608C7.82672 9.60448 7.91294 9.6247 8.00071 9.6247C8.08848 9.6247 8.1747 9.60448 8.25071 9.56608L10.416 8.47233C10.492 8.43396 10.5551 8.37878 10.599 8.31233C10.6428 8.24588 10.666 8.1705 10.666 8.09375V5.90625C10.6661 5.8294 10.643 5.7539 10.5991 5.68734C10.5552 5.62078 10.4921 5.56551 10.416 5.52708L8.25071 4.43333C8.1747 4.39493 8.08848 4.37472 8.00071 4.37472C7.91294 4.37472 7.82672 4.39493 7.75071 4.43333ZM8.25071 5.19167H7.75071L9.91604 6.28483L9.66604 5.90625V8.09375L9.91604 7.71458L7.75071 8.80892H8.25071L6.08537 7.71458L6.33537 8.09375V5.90625L6.08537 6.28542L8.25071 5.19167Z" fill="#2A220E"/>
</g>
<defs>
<clipPath id="clip0_18040_93578">
<rect width="16" height="14" fill="white"/>
</clipPath>
</defs>
</svg>
