<svg width="16" height="14" viewBox="0 0 16 14" fill="none" xmlns="http://www.w3.org/2000/svg">
<g clip-path="url(#clip0_18040_93574)">
<path d="M3 5.19843H5L4.5 4.76093V10.0109L5 9.57343H3L3.5 10.0109V4.76093L3 5.19843ZM3 4.32343C2.86739 4.32343 2.74021 4.36953 2.64645 4.45157C2.55268 4.53362 2.5 4.6449 2.5 4.76093V10.0109C2.5 10.2524 2.724 10.4484 3 10.4484H5C5.13261 10.4484 5.25979 10.4023 5.35355 10.3203C5.44732 10.2382 5.5 10.127 5.5 10.0109V4.76093C5.5 4.6449 5.44732 4.53362 5.35355 4.45157C5.25979 4.36953 5.13261 4.32343 5 4.32343H3ZM7 5.19843H9L8.5 4.76093V10.0109L9 9.57343H7L7.5 10.0109V4.76093L7 5.19843ZM7 4.32343C6.86739 4.32343 6.74022 4.36953 6.64645 4.45157C6.55268 4.53362 6.5 4.6449 6.5 4.76093V10.0109C6.5 10.2524 6.724 10.4484 7 10.4484H9C9.13261 10.4484 9.25979 10.4023 9.35355 10.3203C9.44732 10.2382 9.5 10.127 9.5 10.0109V4.76093C9.5 4.6449 9.44732 4.53362 9.35355 4.45157C9.25979 4.36953 9.13261 4.32343 9 4.32343H7ZM11 5.19843H13L12.5 4.76093V10.0109L13 9.57343H11L11.5 10.0109V4.76093L11 5.19843ZM11 4.32343C10.8674 4.32343 10.7402 4.36953 10.6464 4.45157C10.5527 4.53362 10.5 4.6449 10.5 4.76093V10.0109C10.5 10.2524 10.724 10.4484 11 10.4484H13C13.1326 10.4484 13.2598 10.4023 13.3536 10.3203C13.4473 10.2382 13.5 10.127 13.5 10.0109V4.76093C13.5 4.6449 13.4473 4.53362 13.3536 4.45157C13.2598 4.36953 13.1326 4.32343 13 4.32343H11ZM14 11.3234H2L2.5 11.7609V10.4484H13.5V11.7609L14 11.3234ZM14 12.1984C14.1326 12.1984 14.2598 12.1523 14.3536 12.0703C14.4473 11.9882 14.5 11.877 14.5 11.7609V10.4484C14.5 10.2164 14.3946 9.99381 14.2071 9.82971C14.0196 9.66562 13.7652 9.57343 13.5 9.57343H2.5C2.23478 9.57343 1.98043 9.66562 1.79289 9.82971C1.60536 9.99381 1.5 10.2164 1.5 10.4484V11.7609C1.5 12.0024 1.724 12.1984 2 12.1984H14ZM1 13.9484H15C15.1326 13.9484 15.2598 13.9023 15.3536 13.8203C15.4473 13.7382 15.5 13.627 15.5 13.5109C15.5 13.3949 15.4473 13.2836 15.3536 13.2016C15.2598 13.1195 15.1326 13.0734 15 13.0734H1C0.867392 13.0734 0.740215 13.1195 0.646447 13.2016C0.552678 13.2836 0.5 13.3949 0.5 13.5109C0.5 13.627 0.552678 13.7382 0.646447 13.8203C0.740215 13.9023 0.867392 13.9484 1 13.9484ZM1 12.1984H15C15.1326 12.1984 15.2598 12.1523 15.3536 12.0703C15.4473 11.9882 15.5 11.877 15.5 11.7609C15.5 11.6449 15.4473 11.5336 15.3536 11.4516C15.2598 11.3695 15.1326 11.3234 15 11.3234H1C0.867392 11.3234 0.740215 11.3695 0.646447 11.4516C0.552678 11.5336 0.5 11.6449 0.5 11.7609C0.5 11.877 0.552678 11.9882 0.646447 12.0703C0.740215 12.1523 0.867392 12.1984 1 12.1984ZM13.5 3.01093V4.32343H2.5V3.01093L2.22333 3.40177L8 0.875348L13.7767 3.40235L13.5 3.01093ZM14.5 3.01093C14.4999 2.92974 14.4739 2.85018 14.4251 2.78115C14.3762 2.71213 14.3064 2.65636 14.2233 2.6201L8.44667 0.0919316C8.30791 0.031469 8.15501 0 8 0C7.84499 0 7.69209 0.031469 7.55333 0.0919316L1.77733 2.61951C1.69421 2.65583 1.62429 2.71168 1.57543 2.78082C1.52656 2.84996 1.50067 2.92964 1.50067 3.01093V4.32343C1.50067 4.5555 1.60602 4.77806 1.79356 4.94215C1.9811 5.10625 2.23545 5.19843 2.50067 5.19843H13.5007C13.7659 5.19843 14.0202 5.10625 14.2078 4.94215C14.3953 4.77806 14.5007 4.5555 14.5007 4.32343V3.01093H14.5ZM2 3.44843H14C14.1326 3.44843 14.2598 3.40234 14.3536 3.32029C14.4473 3.23824 14.5 3.12696 14.5 3.01093C14.5 2.8949 14.4473 2.78362 14.3536 2.70157C14.2598 2.61953 14.1326 2.57343 14 2.57343H2C1.86739 2.57343 1.74021 2.61953 1.64645 2.70157C1.55268 2.78362 1.5 2.8949 1.5 3.01093C1.5 3.12696 1.55268 3.23824 1.64645 3.32029C1.74021 3.40234 1.86739 3.44843 2 3.44843Z" fill="#2A220E"/>
</g>
<defs>
<clipPath id="clip0_18040_93574">
<rect width="16" height="14" fill="white"/>
</clipPath>
</defs>
</svg>
