<svg width="16" height="14" viewBox="0 0 16 14" fill="none" xmlns="http://www.w3.org/2000/svg">
<g clip-path="url(#clip0_18040_93582)">
<path d="M10.25 6.34375C10.25 6.48738 10.2177 6.62961 10.1549 6.76231C10.092 6.89501 9.99996 7.01558 9.88388 7.11715C9.76781 7.21871 9.63001 7.29928 9.47835 7.35424C9.3267 7.40921 9.16415 7.4375 9 7.4375C8.83585 7.4375 8.6733 7.40921 8.52165 7.35424C8.36999 7.29928 8.23219 7.21871 8.11612 7.11715C8.00004 7.01558 7.90797 6.89501 7.84515 6.76231C7.78233 6.62961 7.75 6.48738 7.75 6.34375C7.75 6.05367 7.8817 5.77547 8.11612 5.57035C8.35054 5.36523 8.66848 5.25 9 5.25C9.33152 5.25 9.64946 5.36523 9.88388 5.57035C10.1183 5.77547 10.25 6.05367 10.25 6.34375ZM11.25 6.34375C11.25 5.8216 11.0129 5.32085 10.591 4.95163C10.169 4.58242 9.59674 4.375 9 4.375C8.40326 4.375 7.83097 4.58242 7.40901 4.95163C6.98705 5.32085 6.75 5.8216 6.75 6.34375C6.75 6.86589 6.98705 7.36665 7.40901 7.73587C7.83097 8.10508 8.40326 8.3125 9 8.3125C9.59674 8.3125 10.169 8.10508 10.591 7.73587C11.0129 7.36665 11.25 6.86589 11.25 6.34375ZM11.5 13.5625V10.9083L11.0553 11.3429C13.832 11.0717 16 9.28958 16 6.125C16 5.7769 15.842 5.44306 15.5607 5.19692C15.2794 4.95078 14.8978 4.8125 14.5 4.8125C14.1022 4.8125 13.7206 4.95078 13.4393 5.19692C13.158 5.44306 13 5.7769 13 6.125C13 7.25958 12.594 7.96483 11.9067 8.36967C11.4841 8.61254 10.9909 8.74452 10.4853 8.75H6C5.6717 8.75 5.34661 8.80658 5.04329 8.91651C4.73998 9.02645 4.46438 9.18758 4.23223 9.3907C4.00009 9.59383 3.81594 9.83498 3.6903 10.1004C3.56466 10.3658 3.5 10.6502 3.5 10.9375C3.5 11.2248 3.56466 11.5092 3.6903 11.7746C3.81594 12.04 4.00009 12.2812 4.23223 12.4843C4.46438 12.6874 4.73998 12.8486 5.04329 12.9585C5.34661 13.0684 5.6717 13.125 6 13.125H8C8.39783 13.125 8.77936 12.9867 9.06066 12.7406C9.34196 12.4944 9.5 12.1606 9.5 11.8125C9.5 11.4644 9.34196 11.1306 9.06066 10.8844C8.77936 10.6383 8.39783 10.5 8 10.5H6C5.86739 10.5 5.74022 10.5461 5.64645 10.6281C5.55268 10.7102 5.5 10.8215 5.5 10.9375C5.5 11.0535 5.55268 11.1648 5.64645 11.2469C5.74022 11.3289 5.86739 11.375 6 11.375H8C8.13261 11.375 8.25979 11.4211 8.35355 11.5031C8.44732 11.5852 8.5 11.6965 8.5 11.8125C8.5 11.9285 8.44732 12.0398 8.35355 12.1219C8.25979 12.2039 8.13261 12.25 8 12.25H6C5.60218 12.25 5.22064 12.1117 4.93934 11.8656C4.65804 11.6194 4.5 11.2856 4.5 10.9375C4.5 10.5894 4.65804 10.2556 4.93934 10.0094C5.22064 9.76328 5.60218 9.625 6 9.625H10.4933C11.1953 9.61955 11.8802 9.43551 12.4647 9.09533C13.436 8.52425 14 7.54367 14 6.125C14 6.00897 14.0527 5.89769 14.1464 5.81564C14.2402 5.73359 14.3674 5.6875 14.5 5.6875C14.6326 5.6875 14.7598 5.73359 14.8536 5.81564C14.9473 5.89769 15 6.00897 15 6.125C15 8.80833 13.248 10.2486 10.9447 10.4737C10.8224 10.4857 10.7095 10.5366 10.6275 10.6167C10.5455 10.6969 10.5001 10.8007 10.5 10.9083V13.5625C10.5 13.6785 10.5527 13.7898 10.6464 13.8719C10.7402 13.9539 10.8674 14 11 14C11.1326 14 11.2598 13.9539 11.3536 13.8719C11.4473 13.7898 11.5 13.6785 11.5 13.5625ZM6.5 12.6875V13.5625C6.5 13.6785 6.55268 13.7898 6.64645 13.8719C6.74022 13.9539 6.86739 14 7 14C7.13261 14 7.25979 13.9539 7.35355 13.8719C7.44732 13.7898 7.5 13.6785 7.5 13.5625V12.6875C7.5 12.5715 7.44732 12.4602 7.35355 12.3781C7.25979 12.2961 7.13261 12.25 7 12.25C6.86739 12.25 6.74022 12.2961 6.64645 12.3781C6.55268 12.4602 6.5 12.5715 6.5 12.6875ZM0.5 0.875H1.5L1.14667 0.746667L2.08133 1.5645C2.17612 1.64178 2.30148 1.68385 2.43102 1.68185C2.56055 1.67985 2.68414 1.63394 2.77575 1.55378C2.86736 1.47362 2.91983 1.36548 2.92212 1.25214C2.9244 1.1388 2.87632 1.0291 2.788 0.946167L1.85333 0.128333C1.75966 0.0462627 1.63256 0.000102114 1.5 0L0.5 0C0.367392 0 0.240215 0.0460936 0.146447 0.128141C0.0526784 0.210188 0 0.321468 0 0.4375C0 0.553532 0.0526784 0.664812 0.146447 0.746859C0.240215 0.828906 0.367392 0.875 0.5 0.875ZM2.48867 3.06483C2.48939 3.06417 2.49027 3.06366 2.49126 3.06335C2.49224 3.06304 2.4933 3.06294 2.49434 3.06305C2.49538 3.06317 2.49637 3.06349 2.49724 3.064C2.49811 3.06452 2.49882 3.0652 2.49933 3.066C2.138 2.44067 2.43267 1.65083 3.17133 1.323C3.38174 1.22954 3.61437 1.18083 3.85033 1.18083C4.0863 1.18083 4.31893 1.22954 4.52933 1.323C4.502 1.31017 4.50067 1.30608 4.50267 1.30317L4.504 1.302L2.49533 3.059L2.48867 3.06483ZM3.202 3.67733L5.20333 1.92733C5.31277 1.83367 5.39596 1.71913 5.44642 1.59267C5.49687 1.46621 5.51321 1.33125 5.49417 1.19835C5.47513 1.06544 5.42121 0.938194 5.33664 0.826545C5.25207 0.714896 5.13914 0.621874 5.00667 0.55475C4.65381 0.394256 4.26244 0.309399 3.86477 0.307168C3.4671 0.304937 3.07451 0.385395 2.71933 0.541917C2.42638 0.671814 2.16554 0.850946 1.95173 1.06908C1.73792 1.28721 1.57532 1.54007 1.47323 1.8132C1.37114 2.08633 1.33156 2.37439 1.35674 2.66092C1.38192 2.94744 1.47138 3.22682 1.62 3.48308C1.6945 3.6031 1.80027 3.70606 1.92873 3.78362C2.0572 3.86119 2.20475 3.91117 2.35941 3.92952C2.51408 3.94788 2.67151 3.93408 2.81895 3.88925C2.96638 3.84442 3.09967 3.76982 3.208 3.6715L3.202 3.67733ZM5.474 3.11267L6.218 3.47433C6.33399 3.53065 6.47079 3.54434 6.59832 3.51239C6.72584 3.48045 6.83364 3.40549 6.898 3.304C6.96236 3.20251 6.97801 3.08281 6.9415 2.97122C6.90499 2.85964 6.81932 2.76531 6.70333 2.709L5.95933 2.34733C5.9019 2.31945 5.83876 2.30174 5.7735 2.29521C5.70825 2.28867 5.64216 2.29345 5.57902 2.30927C5.51587 2.32509 5.45691 2.35163 5.40549 2.38739C5.35407 2.42315 5.3112 2.46741 5.27933 2.51767C5.24747 2.56792 5.22722 2.62317 5.21976 2.68027C5.2123 2.73737 5.21776 2.79519 5.23583 2.85044C5.25391 2.90569 5.28425 2.95729 5.32511 3.00228C5.36598 3.04727 5.41657 3.08478 5.474 3.11267ZM6.78333 1.81008L7.86 2.06675C7.92338 2.08184 7.98955 2.08586 8.05471 2.07858C8.11987 2.0713 8.18275 2.05286 8.23976 2.02431C8.29678 1.99576 8.34681 1.95767 8.387 1.91221C8.42719 1.86674 8.45675 1.81479 8.474 1.75933C8.49125 1.70387 8.49584 1.64598 8.48752 1.58897C8.4792 1.53195 8.45812 1.47693 8.4255 1.42704C8.39287 1.37715 8.34934 1.33337 8.29738 1.29821C8.24542 1.26304 8.18605 1.23717 8.12267 1.22208L7.046 0.965417C6.98262 0.950326 6.91645 0.946306 6.85129 0.953588C6.78613 0.96087 6.72325 0.979311 6.66624 1.00786C6.60922 1.0364 6.55919 1.0745 6.519 1.11996C6.47881 1.16543 6.44925 1.21737 6.432 1.27283C6.41475 1.32829 6.41016 1.38619 6.41848 1.4432C6.4268 1.50022 6.44788 1.55524 6.4805 1.60513C6.51313 1.65501 6.55666 1.69879 6.60862 1.73396C6.66058 1.76912 6.71995 1.79499 6.78333 1.81008ZM9.59467 2.48092L10.6713 2.73758C10.7993 2.76822 10.9358 2.75313 11.0511 2.69564C11.1663 2.63815 11.2507 2.54297 11.2857 2.43104C11.3207 2.31911 11.3034 2.19959 11.2377 2.09878C11.172 1.99798 11.0633 1.92413 10.9353 1.8935L9.85867 1.63683C9.73074 1.6062 9.59415 1.62129 9.47894 1.67878C9.36373 1.73626 9.27934 1.83144 9.24433 1.94337C9.20932 2.05531 9.22657 2.17482 9.29227 2.27563C9.35797 2.37644 9.46674 2.45028 9.59467 2.48092ZM3.798 4.30967L4.18267 4.91517C4.21453 4.96542 4.2574 5.00969 4.30882 5.04544C4.36024 5.0812 4.41921 5.10774 4.48235 5.12356C4.54549 5.13938 4.61158 5.14416 4.67683 5.13763C4.74209 5.1311 4.80524 5.11338 4.86267 5.0855C4.9201 5.05762 4.97069 5.02011 5.01156 4.97511C5.05242 4.93012 5.08276 4.87853 5.10083 4.82328C5.11891 4.76803 5.12437 4.7102 5.11691 4.6531C5.10944 4.596 5.0892 4.54075 5.05733 4.4905L4.67267 3.885C4.6408 3.83475 4.59793 3.79048 4.54651 3.75472C4.49509 3.71897 4.43613 3.69242 4.37298 3.6766C4.30984 3.66079 4.24375 3.65601 4.1785 3.66254C4.11324 3.66907 4.0501 3.68678 3.99267 3.71467C3.93524 3.74255 3.88464 3.78006 3.84378 3.82505C3.80291 3.87004 3.77258 3.92164 3.7545 3.97689C3.73642 4.03214 3.73096 4.08997 3.73843 4.14706C3.74589 4.20416 3.76613 4.25941 3.798 4.30967ZM2.18933 5.215L2.48267 6.15708C2.49991 6.21254 2.52948 6.26449 2.56967 6.30996C2.60986 6.35542 2.65989 6.39351 2.7169 6.42206C2.77392 6.45061 2.8368 6.46905 2.90196 6.47633C2.96712 6.48361 3.03328 6.47959 3.09667 6.4645C3.16005 6.44941 3.21942 6.42354 3.27138 6.38837C3.32334 6.35321 3.36687 6.30943 3.3995 6.25954C3.43212 6.20965 3.4532 6.15463 3.46152 6.09762C3.46984 6.0406 3.46525 5.98271 3.448 5.92725L3.15467 4.98517C3.13742 4.9297 3.10786 4.87776 3.06767 4.83229C3.02748 4.78683 2.97745 4.74874 2.92043 4.72019C2.86342 4.69164 2.80053 4.6732 2.73537 4.66592C2.67021 4.65864 2.60405 4.66266 2.54067 4.67775C2.47728 4.69284 2.41792 4.71871 2.36596 4.75387C2.314 4.78904 2.27046 4.83282 2.23784 4.88271C2.20521 4.93259 2.18414 4.98762 2.17582 5.04463C2.16749 5.10165 2.17209 5.15954 2.18933 5.215ZM2.956 7.67608L3.12 8.19875C3.13564 8.25575 3.1642 8.30943 3.20401 8.35658C3.24382 8.40373 3.29404 8.44341 3.35172 8.47324C3.40939 8.50308 3.47332 8.52247 3.53972 8.53026C3.60613 8.53806 3.67364 8.53409 3.73826 8.51861C3.80288 8.50313 3.86328 8.47644 3.91588 8.44013C3.96848 8.40382 4.0122 8.35863 4.04445 8.30725C4.0767 8.25586 4.09682 8.19933 4.10362 8.14101C4.11041 8.08269 4.10374 8.02377 4.084 7.96775L3.92067 7.44508C3.90503 7.38808 3.87646 7.33441 3.83666 7.28725C3.79685 7.2401 3.74662 7.20043 3.68895 7.17059C3.63128 7.14075 3.56735 7.12136 3.50094 7.11357C3.43454 7.10578 3.36702 7.10974 3.30241 7.12522C3.23779 7.14071 3.17739 7.1674 3.12479 7.20371C3.07219 7.24002 3.02847 7.2852 2.99621 7.33659C2.96396 7.38797 2.94385 7.4445 2.93705 7.50282C2.93026 7.56114 2.93693 7.62006 2.95667 7.67608H2.956Z" fill="#2A220E"/>
</g>
<defs>
<clipPath id="clip0_18040_93582">
<rect width="16" height="14" fill="white"/>
</clipPath>
</defs>
</svg>
