<svg width="9" height="9" viewBox="0 0 9 9" fill="none" xmlns="http://www.w3.org/2000/svg">
<g clip-path="url(#clip0_18040_93339)">
<path d="M7.06904 3.36753C7.06904 5.72467 4.03842 7.74508 4.03842 7.74508C4.03842 7.74508 1.00781 5.72467 1.00781 3.36753C1.00781 2.56376 1.32711 1.79291 1.89546 1.22456C2.46381 0.65621 3.23466 0.336914 4.03842 0.336914C4.84219 0.336914 5.61304 0.65621 6.18139 1.22456C6.74974 1.79291 7.06904 2.56376 7.06904 3.36753Z" stroke="#4E90A8" stroke-width="0.673469" stroke-linecap="round" stroke-linejoin="round"/>
<path d="M4.04927 4.37783C4.60719 4.37783 5.05947 3.92555 5.05947 3.36763C5.05947 2.80971 4.60719 2.35742 4.04927 2.35742C3.49135 2.35742 3.03906 2.80971 3.03906 3.36763C3.03906 3.92555 3.49135 4.37783 4.04927 4.37783Z" stroke="#4E90A8" stroke-width="0.673469" stroke-linecap="round" stroke-linejoin="round"/>
</g>
<defs>
<clipPath id="clip0_18040_93339">
<rect width="8.08163" height="8.08163" fill="white"/>
</clipPath>
</defs>
</svg>
