<svg width="16" height="14" viewBox="0 0 16 14" fill="none" xmlns="http://www.w3.org/2000/svg">
<g clip-path="url(#clip0_18040_93570)">
<path d="M2.50075 13.5627V4.37517C2.50075 4.25914 2.44808 4.14786 2.35431 4.06581C2.26054 3.98376 2.13336 3.93767 2.00075 3.93767C1.86815 3.93767 1.74097 3.98376 1.6472 4.06581C1.55343 4.14786 1.50075 4.25914 1.50075 4.37517V13.5627C1.50075 13.6787 1.55343 13.79 1.6472 13.872C1.74097 13.9541 1.86815 14.0002 2.00075 14.0002C2.13336 14.0002 2.26054 13.9541 2.35431 13.872C2.44808 13.79 2.50075 13.6787 2.50075 13.5627ZM0.14742 12.5593L1.64742 13.8718C1.74117 13.9538 1.86825 13.9998 2.00075 13.9998C2.13325 13.9998 2.26034 13.9538 2.35409 13.8718L3.85409 12.5593C3.90321 12.5193 3.94261 12.471 3.96994 12.4173C3.99727 12.3637 4.01196 12.3057 4.01315 12.247C4.01433 12.1882 4.00198 12.1299 3.97684 12.0754C3.95169 12.0209 3.91426 11.9714 3.86678 11.9299C3.8193 11.8884 3.76274 11.8556 3.70049 11.8336C3.63823 11.8116 3.57154 11.8008 3.50441 11.8018C3.43727 11.8029 3.37106 11.8157 3.30973 11.8396C3.2484 11.8635 3.1932 11.898 3.14742 11.941L1.64742 13.2535H2.35409L0.854087 11.941C0.759304 11.8637 0.633939 11.8217 0.504405 11.8237C0.374871 11.8257 0.251281 11.8716 0.159672 11.9517C0.0680636 12.0319 0.0155889 12.14 0.0133034 12.2534C0.011018 12.3667 0.0591001 12.4764 0.14742 12.5593ZM3.85409 5.3785L2.35409 4.066C2.26034 3.98408 2.13325 3.93806 2.00075 3.93806C1.86825 3.93806 1.74117 3.98408 1.64742 4.066L0.14742 5.3785C0.0982956 5.41856 0.0588941 5.46686 0.0315661 5.52052C0.00423814 5.57419 -0.0104564 5.63212 -0.0116409 5.69087C-0.0128255 5.74961 -0.000475683 5.80796 0.0246717 5.86244C0.049819 5.91691 0.0872487 5.9664 0.134728 6.00794C0.182207 6.04949 0.238763 6.08224 0.301022 6.10424C0.363281 6.12625 0.429967 6.13705 0.497102 6.13602C0.564237 6.13498 0.630446 6.12212 0.691779 6.09821C0.753112 6.0743 0.808312 6.03982 0.854087 5.99684L2.35409 4.68434H1.64742L3.14742 5.99684C3.1932 6.03982 3.2484 6.0743 3.30973 6.09821C3.37106 6.12212 3.43727 6.13498 3.50441 6.13602C3.57154 6.13705 3.63823 6.12625 3.70049 6.10424C3.76274 6.08224 3.8193 6.04949 3.86678 6.00794C3.91426 5.9664 3.95169 5.91691 3.97684 5.86244C4.00198 5.80796 4.01433 5.74961 4.01315 5.69087C4.01196 5.63212 3.99727 5.57419 3.96994 5.52052C3.94261 5.46686 3.90321 5.41856 3.85409 5.3785ZM5.00075 2.18767H15.5008C15.6334 2.18767 15.7605 2.14158 15.8543 2.05953C15.9481 1.97748 16.0008 1.8662 16.0008 1.75017C16.0008 1.63414 15.9481 1.52286 15.8543 1.44081C15.7605 1.35876 15.6334 1.31267 15.5008 1.31267H5.00075C4.86815 1.31267 4.74097 1.35876 4.6472 1.44081C4.55343 1.52286 4.50075 1.63414 4.50075 1.75017C4.50075 1.8662 4.55343 1.97748 4.6472 2.05953C4.74097 2.14158 4.86815 2.18767 5.00075 2.18767ZM6.14742 0.128504L4.64742 1.441C4.55379 1.52304 4.50119 1.63423 4.50119 1.75017C4.50119 1.86611 4.55379 1.97731 4.64742 2.05934L6.14742 3.37184C6.1932 3.41482 6.2484 3.4493 6.30973 3.47321C6.37106 3.49712 6.43727 3.50998 6.50441 3.51102C6.57154 3.51205 6.63823 3.50125 6.70049 3.47924C6.76274 3.45724 6.8193 3.42449 6.86678 3.38294C6.91426 3.3414 6.95169 3.29191 6.97684 3.23744C7.00198 3.18296 7.01433 3.12461 7.01315 3.06587C7.01196 3.00712 6.99727 2.94919 6.96994 2.89552C6.94261 2.84186 6.90321 2.79356 6.85409 2.7535L5.35409 1.441V2.05934L6.85409 0.746838C6.90321 0.706785 6.94261 0.658485 6.96994 0.604818C6.99727 0.551152 7.01196 0.493219 7.01315 0.434476C7.01433 0.375732 7.00198 0.317382 6.97684 0.262906C6.95169 0.208429 6.91426 0.158943 6.86678 0.117399C6.8193 0.0758543 6.76274 0.0431033 6.70049 0.0210994C6.63823 -0.000904505 6.57154 -0.0117106 6.50441 -0.0106741C6.43727 -0.00963764 6.37106 0.00322009 6.30973 0.0271321C6.2484 0.0510441 6.1932 0.0855204 6.14742 0.128504ZM14.3541 3.37184L15.8541 2.05934C15.9477 1.97731 16.0003 1.86611 16.0003 1.75017C16.0003 1.63423 15.9477 1.52304 15.8541 1.441L14.3541 0.128504C14.3083 0.0855204 14.2531 0.0510441 14.1918 0.0271321C14.1304 0.00322009 14.0642 -0.00963764 13.9971 -0.0106741C13.93 -0.0117106 13.8633 -0.000904505 13.801 0.0210994C13.7388 0.0431033 13.6822 0.0758543 13.6347 0.117399C13.5873 0.158943 13.5498 0.208429 13.5247 0.262906C13.4995 0.317382 13.4872 0.375732 13.4884 0.434476C13.4895 0.493219 13.5042 0.551152 13.5316 0.604818C13.5589 0.658485 13.5983 0.706785 13.6474 0.746838L15.1474 2.05934V1.441L13.6474 2.7535C13.5591 2.83644 13.511 2.94613 13.5133 3.05948C13.5156 3.17282 13.5681 3.28096 13.6597 3.36112C13.7513 3.44127 13.8749 3.48719 14.0044 3.48919C14.1339 3.49119 14.2593 3.44912 14.3541 3.37184ZM7.00075 7.61267V11.8127C7.00075 12.1608 7.15879 12.4946 7.44009 12.7408C7.7214 12.9869 8.10293 13.1252 8.50075 13.1252H12.5008C12.8986 13.1252 13.2801 12.9869 13.5614 12.7408C13.8427 12.4946 14.0008 12.1608 14.0008 11.8127V7.61267C14.0008 7.49664 13.9481 7.38536 13.8543 7.30331C13.7605 7.22126 13.6334 7.17517 13.5008 7.17517C13.3681 7.17517 13.241 7.22126 13.1472 7.30331C13.0534 7.38536 13.0008 7.49664 13.0008 7.61267V11.8127C13.0008 11.9287 12.9481 12.04 12.8543 12.122C12.7605 12.2041 12.6334 12.2502 12.5008 12.2502H8.50075C8.36815 12.2502 8.24097 12.2041 8.1472 12.122C8.05343 12.04 8.00075 11.9287 8.00075 11.8127V7.61267C8.00075 7.49664 7.94808 7.38536 7.85431 7.30331C7.76054 7.22126 7.63336 7.17517 7.50075 7.17517C7.36815 7.17517 7.24097 7.22126 7.1472 7.30331C7.05343 7.38536 7.00075 7.49664 7.00075 7.61267ZM15.8354 8.86275L11.5041 5.45025C11.2287 5.2334 10.8713 5.11342 10.5008 5.11342C10.1302 5.11342 9.77284 5.2334 9.49742 5.45025L5.16609 8.86275C5.07079 8.94114 5.01438 9.04908 5.00897 9.16342C5.00355 9.27777 5.04956 9.38942 5.13712 9.47443C5.22469 9.55945 5.34683 9.61105 5.47737 9.61818C5.60791 9.62532 5.73645 9.58741 5.83542 9.51259L10.1668 6.10009C10.2585 6.02802 10.3775 5.98816 10.5008 5.98816C10.6241 5.98816 10.743 6.02802 10.8348 6.10009L15.1661 9.51259C15.2651 9.58741 15.3936 9.62532 15.5241 9.61818C15.6547 9.61105 15.7768 9.55945 15.8644 9.47443C15.952 9.38942 15.998 9.27777 15.9925 9.16342C15.9871 9.04908 15.9307 8.94114 15.8354 8.86275Z" fill="#2A220E"/>
</g>
<defs>
<clipPath id="clip0_18040_93570">
<rect width="16" height="14" fill="white"/>
</clipPath>
</defs>
</svg>
