<svg width="65" height="50" viewBox="0 0 65 50" fill="none" xmlns="http://www.w3.org/2000/svg">
<g filter="url(#filter0_d_18040_94696)">
<circle cx="40" cy="25" r="21" fill="#376576"/>
</g>
<path d="M44.8759 29.8765L43.0909 28.0967C43.6668 27.363 43.9793 26.457 43.9781 25.5242C43.9781 24.6935 43.7318 23.8815 43.2703 23.1908C42.8088 22.5001 42.1528 21.9618 41.3854 21.6439C40.6179 21.326 39.7735 21.2429 38.9587 21.4049C38.144 21.567 37.3957 21.967 36.8083 22.5544C36.2209 23.1418 35.8209 23.8901 35.6588 24.7048C35.4968 25.5196 35.5799 26.364 35.8978 27.1315C36.2157 27.8989 36.754 28.5549 37.4447 29.0164C38.1354 29.4779 38.9474 29.7242 39.7781 29.7242C40.7109 29.7254 41.6169 29.4129 42.3506 28.837L44.1304 30.622C44.1792 30.6712 44.2372 30.7102 44.3012 30.7369C44.3652 30.7635 44.4338 30.7773 44.5031 30.7773C44.5724 30.7773 44.6411 30.7635 44.705 30.7369C44.769 30.7102 44.8271 30.6712 44.8759 30.622C44.9251 30.5732 44.9641 30.5151 44.9908 30.4511C45.0174 30.3871 45.0312 30.3185 45.0312 30.2492C45.0312 30.1799 45.0174 30.1113 44.9908 30.0473C44.9641 29.9833 44.9251 29.9253 44.8759 29.8765ZM36.6281 25.5242C36.6281 24.9012 36.8129 24.2922 37.159 23.7742C37.5051 23.2562 37.9971 22.8524 38.5727 22.614C39.1483 22.3756 39.7816 22.3132 40.3927 22.4347C41.0037 22.5563 41.565 22.8563 42.0055 23.2968C42.446 23.7374 42.7461 24.2986 42.8676 24.9097C42.9891 25.5207 42.9268 26.1541 42.6883 26.7297C42.4499 27.3053 42.0462 27.7972 41.5282 28.1434C41.0102 28.4895 40.4011 28.6742 39.7781 28.6742C38.9427 28.6742 38.1415 28.3423 37.5507 27.7516C36.96 27.1609 36.6281 26.3597 36.6281 25.5242Z" fill="#FEFCF5"/>
<defs>
<filter id="filter0_d_18040_94696" x="0" y="-12" width="74" height="74" filterUnits="userSpaceOnUse" color-interpolation-filters="sRGB">
<feFlood flood-opacity="0" result="BackgroundImageFix"/>
<feColorMatrix in="SourceAlpha" type="matrix" values="0 0 0 0 0 0 0 0 0 0 0 0 0 0 0 0 0 0 127 0" result="hardAlpha"/>
<feOffset dx="-3"/>
<feGaussianBlur stdDeviation="8"/>
<feComposite in2="hardAlpha" operator="out"/>
<feColorMatrix type="matrix" values="0 0 0 0 0 0 0 0 0 0 0 0 0 0 0 0 0 0 0.1 0"/>
<feBlend mode="normal" in2="BackgroundImageFix" result="effect1_dropShadow_18040_94696"/>
<feBlend mode="normal" in="SourceGraphic" in2="effect1_dropShadow_18040_94696" result="shape"/>
</filter>
</defs>
</svg>
