<svg width="16" height="14" viewBox="0 0 16 14" fill="none" xmlns="http://www.w3.org/2000/svg">
<path d="M15 6.05176V9.84342C15 9.8821 14.9824 9.9192 14.9512 9.94654C14.9199 9.97389 14.8775 9.98926 14.8333 9.98926H1.16667C1.12246 9.98926 1.08007 9.97389 1.04882 9.94654C1.01756 9.9192 1 9.8821 1 9.84342V2.26009C1 2.22141 1.01756 2.18432 1.04882 2.15697C1.08007 2.12962 1.12246 2.11426 1.16667 2.11426H14.8333C14.8775 2.11426 14.9199 2.12962 14.9512 2.15697C14.9824 2.18432 15 2.22141 15 2.26009V6.05176ZM16 6.05176V2.26009C16 1.98935 15.8771 1.7297 15.6583 1.53825C15.4395 1.34681 15.1428 1.23926 14.8333 1.23926H1.16667C0.857247 1.23926 0.560501 1.34681 0.341709 1.53825C0.122916 1.7297 0 1.98935 0 2.26009L0 9.84342C0 10.4069 0.522667 10.8643 1.16667 10.8643H14.8333C15.1428 10.8643 15.4395 10.7567 15.6583 10.5653C15.8771 10.3738 16 10.1142 16 9.84342V6.05176ZM5 13.0518H11C11.1326 13.0518 11.2598 13.0057 11.3536 12.9236C11.4473 12.8416 11.5 12.7303 11.5 12.6143C11.5 12.4982 11.4473 12.3869 11.3536 12.3049C11.2598 12.2229 11.1326 12.1768 11 12.1768H5C4.86739 12.1768 4.74021 12.2229 4.64645 12.3049C4.55268 12.3869 4.5 12.4982 4.5 12.6143C4.5 12.7303 4.55268 12.8416 4.64645 12.9236C4.74021 13.0057 4.86739 13.0518 5 13.0518ZM7.5 10.4268V12.6143C7.5 12.7303 7.55268 12.8416 7.64645 12.9236C7.74022 13.0057 7.86739 13.0518 8 13.0518C8.13261 13.0518 8.25979 13.0057 8.35355 12.9236C8.44732 12.8416 8.5 12.7303 8.5 12.6143V10.4268C8.5 10.3107 8.44732 10.1994 8.35355 10.1174C8.25979 10.0354 8.13261 9.98926 8 9.98926C7.86739 9.98926 7.74022 10.0354 7.64645 10.1174C7.55268 10.1994 7.5 10.3107 7.5 10.4268Z" fill="#2A220E"/>
</svg>
