<svg width="16" height="14" viewBox="0 0 16 14" fill="none" xmlns="http://www.w3.org/2000/svg">
<g clip-path="url(#clip0_18040_93594)">
<path d="M9.49981 10.9371C9.49981 11.2852 9.34178 11.619 9.06047 11.8651C8.77917 12.1113 8.39764 12.2496 7.99981 12.2496C7.60199 12.2496 7.22046 12.1113 6.93915 11.8651C6.65785 11.619 6.49981 11.2852 6.49981 10.9371C6.49981 10.589 6.65785 10.2551 6.93915 10.009C7.22046 9.76284 7.60199 9.62456 7.99981 9.62456C8.39764 9.62456 8.77917 9.76284 9.06047 10.009C9.34178 10.2551 9.49981 10.589 9.49981 10.9371ZM10.4998 10.9371C10.4998 10.3569 10.2364 9.8005 9.76758 9.39027C9.29874 8.98003 8.66286 8.74956 7.99981 8.74956C7.33677 8.74956 6.70089 8.98003 6.23205 9.39027C5.76321 9.8005 5.49981 10.3569 5.49981 10.9371C5.49981 11.5172 5.76321 12.0736 6.23205 12.4839C6.70089 12.8941 7.33677 13.1246 7.99981 13.1246C8.66286 13.1246 9.29874 12.8941 9.76758 12.4839C10.2364 12.0736 10.4998 11.5172 10.4998 10.9371ZM11.8865 7.53448C10.8551 6.63219 9.4563 6.1253 7.99781 6.1253C6.53933 6.1253 5.14056 6.63219 4.10915 7.53448C4.02083 7.61741 3.97274 7.72711 3.97503 7.84045C3.97732 7.95379 4.02979 8.06193 4.1214 8.14209C4.21301 8.22225 4.3366 8.26817 4.46613 8.27017C4.59567 8.27217 4.72103 8.23009 4.81581 8.15281C5.23368 7.78718 5.72976 7.49714 6.27573 7.29926C6.82169 7.10138 7.40686 6.99953 7.99781 6.99953C8.58877 6.99953 9.17393 7.10138 9.7199 7.29926C10.2659 7.49714 10.762 7.78718 11.1798 8.15281C11.2746 8.23009 11.4 8.27217 11.5295 8.27017C11.659 8.26817 11.7826 8.22225 11.8742 8.14209C11.9658 8.06193 12.0183 7.95379 12.0206 7.84045C12.0229 7.72711 11.9748 7.61741 11.8865 7.53448ZM14.0098 5.67831C10.6905 2.77331 5.30915 2.77331 1.98981 5.67831C1.94069 5.71837 1.90129 5.76667 1.87396 5.82033C1.84663 5.874 1.83194 5.93193 1.83075 5.99067C1.82957 6.04942 1.84192 6.10777 1.86706 6.16225C1.89221 6.21672 1.92964 6.26621 1.97712 6.30775C2.0246 6.3493 2.08116 6.38205 2.14341 6.40405C2.20567 6.42606 2.27236 6.43686 2.33949 6.43582C2.40663 6.43479 2.47284 6.42193 2.53417 6.39802C2.5955 6.37411 2.65071 6.33963 2.69648 6.29665C5.62581 3.73406 10.3738 3.73406 13.3031 6.29665C13.3489 6.33963 13.4041 6.37411 13.4655 6.39802C13.5268 6.42193 13.593 6.43479 13.6601 6.43582C13.7273 6.43686 13.794 6.42606 13.8562 6.40405C13.9185 6.38205 13.975 6.3493 14.0225 6.30775C14.07 6.26621 14.1074 6.21672 14.1326 6.16225C14.1577 6.10777 14.1701 6.04942 14.1689 5.99067C14.1677 5.93193 14.153 5.874 14.1257 5.82033C14.0983 5.76667 14.0589 5.71837 14.0098 5.67831ZM15.8405 3.57656C11.4238 -0.0255208 4.57581 -0.0255208 0.159813 3.57656C0.108516 3.61486 0.0666046 3.66185 0.036599 3.71469C0.00659339 3.76754 -0.0108859 3.82514 -0.0147874 3.88405C-0.0186889 3.94296 -0.00893198 4.00194 0.0138965 4.05747C0.0367249 4.11299 0.0721531 4.1639 0.11805 4.20713C0.163946 4.25036 0.219362 4.28502 0.280965 4.30902C0.342567 4.33303 0.409082 4.34588 0.476509 4.34681C0.543935 4.34774 0.61088 4.33672 0.673315 4.31442C0.73575 4.29213 0.792385 4.25901 0.839813 4.21706C4.87315 0.928229 11.1258 0.928229 15.1585 4.21706C15.2065 4.25621 15.2629 4.28669 15.3245 4.30676C15.386 4.32683 15.4514 4.3361 15.5171 4.33404C15.5827 4.33198 15.6472 4.31863 15.7069 4.29476C15.7666 4.27089 15.8204 4.23695 15.8651 4.1949C15.9099 4.15284 15.9447 4.10349 15.9677 4.04965C15.9906 3.99582 16.0012 3.93856 15.9988 3.88114C15.9965 3.82372 15.9812 3.76727 15.9539 3.71501C15.9267 3.66275 15.8879 3.61571 15.8398 3.57656H15.8405Z" fill="#2A220E"/>
</g>
<defs>
<clipPath id="clip0_18040_93594">
<rect width="16" height="14" fill="white"/>
</clipPath>
</defs>
</svg>
